# xmcd
#
# Track frame offsets: 
#        150
#        11952
#        22461
#        37688
#        52331
#        64108
#        77221
#        88585
#        99329
#        108662
#        120378
#        133663
#        147933
#        160252
#        172476
#        185374
#        196108
#        207344
#
# Disc length: 2907 seconds
#
# Revision: 7
# Processed by: cddbd v1.5.2PL0 Copyright (c) Steve Scherf et al.
# Submitted via: ExactAudioCopy v0.99pb5
#
DISCID=070b5912
DTITLE=Various Artist - Sounds Of The Sixties - TL SCC-25 - Soul Classics - C
DTITLE=D 2
DYEAR=2004
DGENRE=Soul
TTITLE0=Temptations - Get ready
TTITLE1=Nina Simone - Ain't got no - I got life
TTITLE2=Edwin Starr - Twenty-five miles
TTITLE3=P.P. Arnold - First cut is the deepest
TTITLE4=Four Tops - What is a man
TTITLE5=Percy Sledge - Take time to know her
TTITLE6=Marvelettes - Please Mr. Postman
TTITLE7=Gene Chandler - Duke of Earl
TTITLE8=Fats Domino - My girl Josephine
TTITLE9=Inez and Charlie Foxx - Mockingbird
TTITLE10=Ben E. King - Amor
TTITLE11=Dionne Warwick - You'll never get to heaven (if you break my 
TTITLE11=heart)
TTITLE12=Jimmy Ruffin - I've passed this way before
TTITLE13=Sam and Dave - You don't know what you mean to me
TTITLE14=Supremes - Back in my arms again
TTITLE15=Sly and The Family Stone - Everyday people
TTITLE16=Jr. Walker and The All Stars - What does it take (to win your l
TTITLE16=ove)
TTITLE17=Booker T. and The M.G.'s - Soul limbo
EXTD=
EXTT0=
EXTT1=
EXTT2=
EXTT3=
EXTT4=
EXTT5=
EXTT6=
EXTT7=
EXTT8=
EXTT9=
EXTT10=
EXTT11=
EXTT12=
EXTT13=
EXTT14=
EXTT15=
EXTT16=
EXTT17=
PLAYORDER=
